<mxfile host="app.diagrams.net" modified="2023-10-09T12:17:33.299Z" agent="Mozilla/5.0 (Windows NT 10.0; Win64; x64) AppleWebKit/537.36 (KHTML, like Gecko) Chrome/117.0.0.0 Safari/537.36" etag="SyTpVaL3Ccy3oXrGsz-v" version="22.0.4" type="device">
  <diagram name="Page-1" id="2YBvvXClWsGukQMizWep">
    <mxGraphModel dx="1290" dy="534" grid="1" gridSize="10" guides="1" tooltips="1" connect="1" arrows="1" fold="1" page="1" pageScale="1" pageWidth="850" pageHeight="1100" math="0" shadow="0">
      <root>
        <mxCell id="0" />
        <mxCell id="1" parent="0" />
        <mxCell id="nltM5WF1EHa3icjowugd-1" value="" style="ellipse;html=1;shape=startState;fillColor=#000000;strokeColor=#ff0000;" vertex="1" parent="1">
          <mxGeometry x="50" y="45" width="30" height="30" as="geometry" />
        </mxCell>
        <mxCell id="nltM5WF1EHa3icjowugd-2" value="" style="edgeStyle=orthogonalEdgeStyle;html=1;verticalAlign=bottom;endArrow=open;endSize=8;strokeColor=#ff0000;rounded=0;entryX=0;entryY=0.5;entryDx=0;entryDy=0;" edge="1" source="nltM5WF1EHa3icjowugd-1" parent="1" target="nltM5WF1EHa3icjowugd-3">
          <mxGeometry relative="1" as="geometry">
            <mxPoint x="160" y="55" as="targetPoint" />
            <Array as="points">
              <mxPoint x="140" y="60" />
              <mxPoint x="140" y="60" />
            </Array>
          </mxGeometry>
        </mxCell>
        <mxCell id="nltM5WF1EHa3icjowugd-3" value="Homing" style="rounded=1;whiteSpace=wrap;html=1;arcSize=40;fontColor=#000000;fillColor=#ffffc0;strokeColor=#ff0000;" vertex="1" parent="1">
          <mxGeometry x="160" y="40" width="120" height="40" as="geometry" />
        </mxCell>
        <mxCell id="nltM5WF1EHa3icjowugd-4" value="" style="edgeStyle=orthogonalEdgeStyle;html=1;verticalAlign=bottom;endArrow=open;endSize=8;strokeColor=#ff0000;rounded=0;entryX=0;entryY=0.5;entryDx=0;entryDy=0;" edge="1" source="nltM5WF1EHa3icjowugd-3" parent="1">
          <mxGeometry relative="1" as="geometry">
            <mxPoint x="390" y="60" as="targetPoint" />
          </mxGeometry>
        </mxCell>
        <mxCell id="nltM5WF1EHa3icjowugd-9" value="Homing Done /&amp;nbsp;&lt;br&gt;Camera.StartDetecting()" style="text;html=1;align=center;verticalAlign=middle;resizable=0;points=[];autosize=1;strokeColor=none;fillColor=none;" vertex="1" parent="1">
          <mxGeometry x="256" y="55" width="150" height="40" as="geometry" />
        </mxCell>
        <mxCell id="nltM5WF1EHa3icjowugd-10" value="StartMoving()" style="text;html=1;align=center;verticalAlign=middle;resizable=0;points=[];autosize=1;strokeColor=none;fillColor=none;" vertex="1" parent="1">
          <mxGeometry x="72" y="60" width="90" height="30" as="geometry" />
        </mxCell>
        <mxCell id="nltM5WF1EHa3icjowugd-15" value="Detecting" style="rounded=1;whiteSpace=wrap;html=1;arcSize=40;fontColor=#000000;fillColor=#ffffc0;strokeColor=#ff0000;" vertex="1" parent="1">
          <mxGeometry x="391" y="45" width="120" height="40" as="geometry" />
        </mxCell>
        <mxCell id="nltM5WF1EHa3icjowugd-16" value="" style="edgeStyle=orthogonalEdgeStyle;html=1;verticalAlign=bottom;endArrow=open;endSize=8;strokeColor=#ff0000;rounded=0;" edge="1" source="nltM5WF1EHa3icjowugd-15" parent="1">
          <mxGeometry relative="1" as="geometry">
            <mxPoint x="580" y="65" as="targetPoint" />
          </mxGeometry>
        </mxCell>
        <mxCell id="nltM5WF1EHa3icjowugd-17" value="Move to Object" style="rounded=1;whiteSpace=wrap;html=1;arcSize=40;fontColor=#000000;fillColor=#ffffc0;strokeColor=#ff0000;" vertex="1" parent="1">
          <mxGeometry x="580" y="45" width="120" height="40" as="geometry" />
        </mxCell>
        <mxCell id="nltM5WF1EHa3icjowugd-18" value="" style="edgeStyle=orthogonalEdgeStyle;html=1;verticalAlign=bottom;endArrow=open;endSize=8;strokeColor=#ff0000;rounded=0;entryX=0.5;entryY=0;entryDx=0;entryDy=0;" edge="1" source="nltM5WF1EHa3icjowugd-17" parent="1" target="nltM5WF1EHa3icjowugd-20">
          <mxGeometry relative="1" as="geometry">
            <mxPoint x="640" y="145" as="targetPoint" />
          </mxGeometry>
        </mxCell>
        <mxCell id="nltM5WF1EHa3icjowugd-19" value="Object detected /&amp;nbsp;&lt;br&gt;move to ..." style="text;html=1;align=center;verticalAlign=middle;resizable=0;points=[];autosize=1;strokeColor=none;fillColor=none;" vertex="1" parent="1">
          <mxGeometry x="490" y="85" width="120" height="40" as="geometry" />
        </mxCell>
        <mxCell id="nltM5WF1EHa3icjowugd-20" value="Moving to drop" style="rounded=1;whiteSpace=wrap;html=1;arcSize=40;fontColor=#000000;fillColor=#ffffc0;strokeColor=#ff0000;" vertex="1" parent="1">
          <mxGeometry x="580" y="200" width="120" height="40" as="geometry" />
        </mxCell>
        <mxCell id="nltM5WF1EHa3icjowugd-21" value="" style="edgeStyle=orthogonalEdgeStyle;html=1;verticalAlign=bottom;endArrow=open;endSize=8;strokeColor=#ff0000;rounded=0;entryX=0.5;entryY=1;entryDx=0;entryDy=0;" edge="1" source="nltM5WF1EHa3icjowugd-20" parent="1" target="nltM5WF1EHa3icjowugd-15">
          <mxGeometry relative="1" as="geometry">
            <mxPoint x="640" y="300" as="targetPoint" />
            <Array as="points">
              <mxPoint x="640" y="280" />
              <mxPoint x="451" y="280" />
            </Array>
          </mxGeometry>
        </mxCell>
        <mxCell id="nltM5WF1EHa3icjowugd-22" value="At pos/ pakObject/ &lt;br&gt;Move to DropPoint" style="text;html=1;align=center;verticalAlign=middle;resizable=0;points=[];autosize=1;strokeColor=none;fillColor=none;" vertex="1" parent="1">
          <mxGeometry x="650" y="125" width="120" height="40" as="geometry" />
        </mxCell>
      </root>
    </mxGraphModel>
  </diagram>
</mxfile>
